<svg width="40" height="40" viewBox="0 0 40 40" fill="none" xmlns="http://www.w3.org/2000/svg">
  <rect width="40" height="40" rx="8" fill="#F3F4F6"/>
  <path d="M20 12C16.13 12 13 15.13 13 19C13 21.38 14.19 23.47 16 24.74V28C16 28.55 16.45 29 17 29H23C23.55 29 24 28.55 24 28V24.74C25.81 23.47 27 21.38 27 19C27 15.13 23.87 12 20 12ZM22 27H18V25H22V27ZM22.85 22.85L22 23.39V24H18V23.39L17.15 22.85C15.8 21.97 15 20.55 15 19C15 16.24 17.24 14 20 14C22.76 14 25 16.24 25 19C25 20.55 24.2 21.97 22.85 22.85Z" fill="#6B46C1"/>
  <circle cx="20" cy="19" r="2" fill="#6B46C1"/>
</svg> 