<svg width="40" height="40" viewBox="0 0 40 40" fill="none" xmlns="http://www.w3.org/2000/svg">
  <rect width="40" height="40" rx="8" fill="#E1EBFE"/>
  <path d="M30.5 17.5623C30.5 14.5121 28.0312 12.0425 25 12.0425C23.2031 12.0425 21.6406 12.9316 20.6875 14.3043C19.7344 12.9316 18.1719 12.0425 16.375 12.0425C13.3125 12.0425 10.875 14.5121 10.875 17.5623C10.875 19.3634 11.7656 20.9397 13.125 21.8999C11.7656 22.8602 10.875 24.4364 10.875 26.2376C10.875 29.2878 13.3125 31.7574 16.375 31.7574C18.1719 31.7574 19.7344 30.8683 20.6875 29.4956C21.6406 30.8683 23.2031 31.7574 25 31.7574C28.0312 31.7574 30.5 29.2878 30.5 26.2376C30.5 24.4364 29.6094 22.8602 28.25 21.8999C29.6094 20.9397 30.5 19.3634 30.5 17.5623Z" fill="#2F80ED"/>
</svg> 